<?xml version="1.0" encoding="utf-8"?>
<!-- Generator: Adobe Illustrator 16.0.3, SVG Export Plug-In . SVG Version: 6.00 Build 0)  -->
<!DOCTYPE svg PUBLIC "-//W3C//DTD SVG 1.1//EN" "http://www.w3.org/Graphics/SVG/1.1/DTD/svg11.dtd">
<svg version="1.1" id="Ebene_1" xmlns="http://www.w3.org/2000/svg" xmlns:xlink="http://www.w3.org/1999/xlink" x="0px" y="0px"
	 width="358px" height="110px" viewBox="0 0 358 110" enable-background="new 0 0 358 110" xml:space="preserve">
<g>
	<defs>
		<rect id="SVGID_1_" x="10.475" y="16.78" width="337.033" height="92.795"/>
	</defs>
	<clipPath id="SVGID_2_">
		<use xlink:href="#SVGID_1_"  overflow="visible"/>
	</clipPath>
	<path clip-path="url(#SVGID_2_)" fill="#8EBAE5" d="M270.97,86.192h4.444v-9.323h2.376c1.791,0,2.563,1.051,2.625,2.779
		l0.123,4.229c0.031,0.862,0.124,1.696,0.557,2.314h4.814v-0.185c-0.833-0.434-0.957-1.636-0.987-3.951
		c-0.062-4.662-0.524-6.329-3.55-6.73v-0.062c2.5-0.524,3.674-2.5,3.674-5.433c0-3.768-2.223-5.682-5.865-5.682h-8.211V86.192z
		 M275.414,67.424h2.1c2.006,0,3.088,1.019,3.088,3.057c0,2.376-1.205,3.302-3.335,3.302h-1.853V67.424z"/>
	<path clip-path="url(#SVGID_2_)" fill="#8EBAE5" d="M205.432,64.151v15.373c0,5.896,3.427,7.1,7.038,7.1s7.039-1.48,7.039-7.1
		V64.151h-4.444v15.373c0,2.192-0.525,3.828-2.595,3.828c-2.067,0-2.593-1.636-2.593-3.828V64.151H205.432z"/>
</g>
<polygon fill="#8EBAE5" points="220.597,64.151 220.597,86.192 224.672,86.192 224.672,70.759 224.733,70.759 230.166,86.192 
	235.229,86.192 235.229,64.151 231.154,64.151 231.154,79.246 231.093,79.246 225.721,64.151 "/>
<rect x="236.372" y="64.152" fill="#8EBAE5" width="4.444" height="22.041"/>
<polygon fill="#8EBAE5" points="241.122,64.151 246.184,86.192 251.896,86.192 256.957,64.151 252.358,64.151 249.086,80.451 
	248.994,80.451 245.876,64.151 "/>
<polygon fill="#8EBAE5" points="257.354,64.151 257.354,86.192 269.979,86.192 269.979,82.551 261.799,82.551 261.799,76.622 
	269.209,76.622 269.209,72.98 261.799,72.98 261.799,67.795 269.671,67.795 269.671,64.151 "/>
<g>
	<defs>
		<rect id="SVGID_3_" x="10.475" y="16.78" width="337.033" height="92.795"/>
	</defs>
	<clipPath id="SVGID_4_">
		<use xlink:href="#SVGID_3_"  overflow="visible"/>
	</clipPath>
	<path clip-path="url(#SVGID_4_)" fill="#8EBAE5" d="M285.414,79.309v0.895c0,4.076,1.976,6.423,7.008,6.423
		c4.815,0,7.655-2.101,7.655-6.763c0-2.685-0.865-4.382-4.199-5.834l-3.426-1.48c-1.883-0.804-2.284-1.636-2.284-2.994
		c0-1.296,0.525-2.563,2.531-2.563c1.697,0,2.408,1.204,2.408,3.273h4.26v-0.618c0-4.229-2.872-5.927-6.823-5.927
		c-4.197,0-6.82,2.191-6.82,6.481c0,3.675,1.82,5.312,5.771,6.668c2.934,1.02,3.952,1.761,3.952,3.768
		c0,1.852-1.298,2.716-2.655,2.716c-2.347,0-2.933-1.327-2.933-3.395v-0.649H285.414z"/>
</g>
<rect x="300.658" y="64.152" fill="#8EBAE5" width="4.444" height="22.041"/>
<polygon fill="#8EBAE5" points="328.192,64.151 325.105,72.672 325.043,72.672 322.143,64.151 305.687,64.151 305.687,67.795 
	310.501,67.795 310.501,86.192 314.947,86.192 314.947,67.795 318.696,67.795 322.852,77.519 322.852,86.192 327.297,86.192 
	327.297,77.519 333.008,64.151 "/>
<g>
	<defs>
		<rect id="SVGID_5_" x="10.475" y="16.78" width="337.033" height="92.795"/>
	</defs>
	<clipPath id="SVGID_6_">
		<use xlink:href="#SVGID_5_"  overflow="visible"/>
	</clipPath>
	<path clip-path="url(#SVGID_6_)" fill="#00549F" d="M166.383,62.146h-0.282h-7.084v-2.495v-19.48v-0.163h7.069h0.015h4.995
		c3.276-0.001,6.1,2.12,7.022,4.931c0.853,2.605,0.124,5.434-1.802,7.449c0.256,0.693,0.506,1.236,0.743,1.859
		c0.535,1.233,1.024,2.466,1.559,3.683l1.753,4.217h-0.046h-7.423c0,0.004-0.06-0.178-0.119-0.253
		c-0.297-0.651-0.565-1.351-0.861-2.004l-1.797-4.262c-0.713-1.722-1.426-3.35-2.138-5.072c0.889-0.024,1.554,0.143,2.412-0.252
		c0.604-0.297,1.518-1.035,1.542-2.449c-0.024-0.701-0.218-1.232-0.681-1.785c-0.466-0.513-1.139-0.894-2.016-0.906
		c0,0-2.862-0.001-2.861,0V62.146z"/>
	<path clip-path="url(#SVGID_6_)" fill="#00549F" d="M243.318,40.008v22.139h-5.751h-1.615V53.12h-0.687h-4.409h-0.061v9.027
		c-1.337,0-2.776-0.014-4.112,0h-3.253V45.131h-5.152v0.534v1.603v7.291v7.588h-0.059h-7.308v-9.176v-0.357v-7.483h-5.195v8.033
		v8.983h-7.587c-1.322-3.191-2.718-6.414-4.01-9.592c-0.148-0.668-0.297-1.337-0.489-1.99v11.582h-7.604
		c-1.507-3.504-2.955-6.938-4.458-10.494c-0.52-1.232-0.947-2.234-1.485-3.515l-0.073-0.168l-1.17-2.747l-1.676-3.923
		c-0.147-0.445-0.384-0.847-0.534-1.292h7.586c1.559,3.786,3.132,7.528,4.766,11.255l0.045,0.089
		c-0.059-0.431-0.194-0.98-0.268-1.395v-6.608c0.014-1.055,0-2.258,0-3.341h7.602c0.096,0.241,0.149,0.371,0.223,0.565
		c0.892,2.093,1.738,4.172,2.63,6.25l1.989,4.529c-0.045-0.476-0.148-0.935-0.209-1.395v-9.949h0.609h5.168h18.709h5.315v1.381
		v6.608h0.356h4.8v-7.989h3.843H243.318z"/>
</g>
<path fill="#8EBAE5" d="M264.684,53.805l2.14-9.954h0.063l2.14,9.954H264.684z M249.925,53.805l2.139-9.954h0.062l2.141,9.954
	H249.925z M269.614,40.005h-5.52l-4.62,17.452l-4.62-17.452h-5.521l-5.86,22.141h4.651l1.023-4.682h5.893l1.022,4.682h6.822
	l1.022-4.682h5.893l1.022,4.682h4.652L269.614,40.005z"/>
<g>
	<defs>
		<rect id="SVGID_7_" x="10.475" y="16.78" width="337.033" height="92.795"/>
	</defs>
	<clipPath id="SVGID_8_">
		<use xlink:href="#SVGID_7_"  overflow="visible"/>
	</clipPath>
	<path clip-path="url(#SVGID_8_)" fill="#8EBAE5" d="M288.773,47.561c0-3.21-0.462-7.872-6.821-7.872
		c-6.667,0-7.502,4.754-7.502,11.453c0,6.698,0.835,11.452,7.502,11.452c5.834,0,7.007-4.105,7.007-8.859h-4.445
		c0,4.754-1.173,5.587-2.778,5.587c-1.914,0-2.84-1.204-2.84-7.872c0-6.235,0.525-8.488,2.778-8.488
		c2.006,0,2.655,1.389,2.655,4.599H288.773z"/>
</g>
<polygon fill="#8EBAE5" points="289.837,62.146 294.301,62.146 294.301,52.318 299.511,52.318 299.511,62.146 303.977,62.146 
	303.977,40.008 299.511,40.008 299.511,48.474 294.301,48.474 294.301,40.008 289.837,40.008 "/>
<polygon fill="#8EBAE5" points="304.944,40.004 304.944,62.146 317.629,62.146 317.629,58.488 309.41,58.488 309.41,52.533 
	316.854,52.533 316.854,48.873 309.41,48.873 309.41,43.663 317.318,43.663 317.318,40.004 "/>
<polygon fill="#8EBAE5" points="318.292,40.008 318.292,62.147 322.385,62.147 322.385,46.643 322.445,46.643 327.903,62.147 
	332.99,62.147 332.99,40.008 328.896,40.008 328.896,55.17 328.834,55.17 323.438,40.008 "/>
<rect x="144.007" y="39.978" fill="#00549F" width="1.023" height="46.398"/>
<g>
	<defs>
		<rect id="SVGID_9_" x="10.475" y="16.78" width="337.033" height="92.795"/>
	</defs>
	<clipPath id="SVGID_10_">
		<use xlink:href="#SVGID_9_"  overflow="visible"/>
	</clipPath>
	<path clip-path="url(#SVGID_10_)" fill="#00549F" d="M125.845,86.376h1.412v-3.652c0-0.606,0.248-0.91,0.746-0.91
		c0.211,0,0.365,0.057,0.461,0.169c0.095,0.112,0.143,0.312,0.143,0.599v3.795h1.412v-4.082c0-0.552-0.122-0.951-0.363-1.197
		c-0.243-0.244-0.589-0.367-1.039-0.367c-0.307,0-0.58,0.063-0.818,0.188c-0.24,0.126-0.434,0.326-0.583,0.6h-0.021v-0.646h-1.35
		V86.376z M122.232,83v-0.215c0-0.13,0.011-0.259,0.035-0.388c0.024-0.13,0.063-0.248,0.118-0.354
		c0.054-0.105,0.128-0.191,0.22-0.256c0.092-0.065,0.21-0.097,0.353-0.097s0.261,0.027,0.353,0.087
		c0.092,0.058,0.164,0.143,0.215,0.255c0.051,0.113,0.087,0.249,0.107,0.41c0.021,0.16,0.034,0.345,0.041,0.557H122.232z
		 M125.024,83.839v-0.316c0-0.424-0.027-0.807-0.081-1.151c-0.056-0.345-0.158-0.637-0.307-0.88
		c-0.151-0.242-0.357-0.43-0.619-0.563c-0.263-0.133-0.599-0.199-1.008-0.199c-0.478,0-0.859,0.078-1.146,0.234
		c-0.286,0.157-0.506,0.369-0.66,0.635c-0.153,0.267-0.255,0.569-0.306,0.91c-0.052,0.342-0.077,0.696-0.077,1.064
		c0,0.341,0.015,0.687,0.046,1.038c0.031,0.351,0.113,0.668,0.251,0.952c0.136,0.282,0.347,0.513,0.634,0.689
		c0.286,0.177,0.685,0.267,1.197,0.267c0.675,0,1.169-0.173,1.483-0.517c0.313-0.345,0.484-0.837,0.512-1.479h-1.269
		c-0.041,0.348-0.117,0.606-0.225,0.777c-0.109,0.171-0.283,0.256-0.522,0.256c-0.13,0-0.239-0.035-0.327-0.107
		c-0.089-0.071-0.161-0.167-0.215-0.286c-0.055-0.12-0.094-0.256-0.118-0.409s-0.035-0.312-0.035-0.476v-0.44H125.024z
		 M118.17,80.872h-0.716v0.962h0.716v3.151c0,0.278,0.017,0.511,0.051,0.694c0.034,0.185,0.098,0.333,0.19,0.445
		c0.092,0.113,0.223,0.193,0.394,0.241c0.169,0.048,0.394,0.071,0.675,0.071c0.163,0,0.318-0.008,0.465-0.021
		c0.146-0.013,0.298-0.028,0.455-0.041v-0.981c-0.048,0.007-0.099,0.012-0.153,0.015c-0.055,0.003-0.11,0.005-0.164,0.005
		c-0.204,0-0.339-0.046-0.404-0.138c-0.065-0.092-0.097-0.247-0.097-0.465v-2.978h0.818v-0.962h-0.818v-1.575h-1.412V80.872z
		 M114.831,86.376h1.412v-4.542h0.818v-0.962h-0.818v-0.481c0-0.155,0.041-0.269,0.123-0.337c0.082-0.068,0.221-0.102,0.419-0.102
		h0.133c0.061,0,0.109,0.003,0.143,0.01v-1.003c-0.26-0.02-0.511-0.03-0.757-0.03c-0.225,0-0.429,0.022-0.613,0.066
		c-0.185,0.044-0.34,0.118-0.466,0.22c-0.127,0.103-0.224,0.238-0.292,0.409c-0.068,0.171-0.102,0.379-0.102,0.624v0.624h-0.716
		v0.962h0.716V86.376z M112.117,84.709c0,0.156-0.027,0.288-0.082,0.394c-0.055,0.105-0.125,0.192-0.209,0.261
		c-0.086,0.068-0.179,0.118-0.282,0.148c-0.102,0.03-0.201,0.046-0.296,0.046c-0.192,0-0.328-0.074-0.41-0.225
		c-0.081-0.151-0.122-0.331-0.122-0.543c0-0.245,0.061-0.439,0.184-0.583c0.123-0.143,0.327-0.245,0.614-0.307
		c0.088-0.021,0.187-0.054,0.296-0.098s0.211-0.104,0.307-0.179V84.709z M110.808,82.561v-0.153c0-0.218,0.054-0.393,0.163-0.522
		c0.109-0.13,0.272-0.193,0.491-0.193c0.239,0,0.408,0.059,0.507,0.179c0.098,0.119,0.148,0.284,0.148,0.496
		c0,0.184-0.041,0.324-0.123,0.419c-0.081,0.095-0.229,0.171-0.44,0.225l-0.797,0.216c-0.246,0.068-0.456,0.146-0.63,0.234
		s-0.317,0.2-0.429,0.333c-0.113,0.133-0.197,0.294-0.251,0.481c-0.055,0.187-0.082,0.411-0.082,0.67
		c0,0.184,0.024,0.37,0.072,0.557c0.047,0.188,0.123,0.356,0.225,0.507s0.238,0.273,0.409,0.368c0.17,0.095,0.379,0.144,0.624,0.144
		c0.341,0,0.619-0.049,0.834-0.144c0.215-0.095,0.404-0.286,0.568-0.573h0.02c0.021,0.096,0.042,0.192,0.067,0.292
		c0.023,0.1,0.059,0.192,0.107,0.281h1.35c-0.068-0.164-0.114-0.316-0.138-0.46s-0.036-0.345-0.036-0.604v-2.896
		c0-0.246-0.025-0.473-0.076-0.68c-0.051-0.208-0.149-0.387-0.292-0.537c-0.143-0.151-0.347-0.266-0.608-0.348
		c-0.263-0.082-0.603-0.123-1.018-0.123c-0.266,0-0.517,0.028-0.752,0.087c-0.236,0.058-0.44,0.152-0.614,0.286
		c-0.174,0.133-0.312,0.309-0.414,0.526c-0.103,0.218-0.154,0.484-0.154,0.798v0.134H110.808z M104.396,86.376h1.411v-3.652
		c0-0.606,0.249-0.91,0.747-0.91c0.211,0,0.364,0.057,0.46,0.169c0.096,0.112,0.144,0.312,0.144,0.599v3.795h1.411v-4.082
		c0-0.552-0.121-0.951-0.363-1.197c-0.242-0.244-0.588-0.367-1.038-0.367c-0.621,0-1.068,0.234-1.34,0.706h-0.021v-2.363h-1.411
		V86.376z M103.587,82.857c0-0.655-0.165-1.175-0.496-1.556c-0.331-0.382-0.823-0.572-1.478-0.572c-0.327,0-0.628,0.044-0.9,0.133
		c-0.273,0.089-0.509,0.243-0.706,0.465c-0.199,0.222-0.352,0.519-0.461,0.89c-0.109,0.372-0.163,0.841-0.163,1.407
		c0,0.553,0.044,1.015,0.133,1.386c0.088,0.372,0.22,0.668,0.394,0.891c0.174,0.222,0.391,0.381,0.654,0.476
		c0.262,0.095,0.571,0.144,0.926,0.144c0.75,0,1.287-0.194,1.611-0.583c0.324-0.39,0.486-0.944,0.486-1.667h-1.35
		c0,0.449-0.055,0.776-0.164,0.981c-0.109,0.204-0.283,0.307-0.521,0.307c-0.158,0-0.286-0.035-0.384-0.107
		c-0.099-0.071-0.176-0.187-0.23-0.343c-0.055-0.156-0.092-0.356-0.113-0.599c-0.02-0.241-0.03-0.533-0.03-0.875
		c0-0.313,0.01-0.59,0.03-0.828c0.021-0.238,0.058-0.435,0.113-0.589c0.054-0.152,0.134-0.269,0.24-0.347
		c0.106-0.079,0.247-0.118,0.425-0.118c0.129,0,0.236,0.033,0.322,0.097c0.085,0.065,0.149,0.151,0.194,0.257
		c0.044,0.104,0.075,0.225,0.092,0.357s0.026,0.265,0.026,0.395H103.587z M94.716,84.576v0.194c0,0.266,0.031,0.506,0.092,0.721
		s0.169,0.398,0.322,0.553c0.154,0.153,0.36,0.271,0.619,0.353c0.259,0.082,0.59,0.123,0.992,0.123c0.294,0,0.566-0.036,0.819-0.107
		c0.252-0.072,0.468-0.179,0.649-0.322s0.323-0.325,0.425-0.543c0.102-0.218,0.153-0.47,0.153-0.757
		c0-0.416-0.092-0.744-0.276-0.987c-0.184-0.241-0.498-0.438-0.941-0.588l-0.849-0.287c-0.238-0.073-0.401-0.166-0.486-0.275
		s-0.128-0.232-0.128-0.368c0-0.197,0.067-0.346,0.2-0.445c0.133-0.099,0.288-0.147,0.465-0.147c0.232,0,0.394,0.065,0.486,0.198
		c0.092,0.134,0.138,0.344,0.138,0.63h1.269v-0.226c0-0.498-0.154-0.883-0.461-1.156c-0.307-0.272-0.78-0.408-1.422-0.408
		c-0.361,0-0.67,0.044-0.926,0.133c-0.255,0.089-0.465,0.208-0.629,0.357c-0.163,0.15-0.283,0.325-0.358,0.527
		c-0.074,0.201-0.112,0.414-0.112,0.639c0,0.39,0.099,0.708,0.296,0.957c0.198,0.248,0.491,0.442,0.88,0.578l0.993,0.358
		c0.136,0.054,0.255,0.128,0.358,0.22c0.102,0.092,0.153,0.228,0.153,0.404c0,0.218-0.064,0.381-0.194,0.491
		c-0.13,0.108-0.304,0.163-0.522,0.163c-0.238,0-0.422-0.073-0.547-0.22c-0.126-0.146-0.19-0.34-0.19-0.578v-0.184H94.716z
		 M89.758,86.376h1.412v-3.652c0-0.606,0.249-0.91,0.747-0.91c0.212,0,0.365,0.057,0.46,0.169c0.095,0.112,0.143,0.312,0.143,0.599
		v3.795h1.412v-4.082c0-0.552-0.121-0.951-0.363-1.197c-0.242-0.244-0.588-0.367-1.038-0.367c-0.307,0-0.58,0.063-0.819,0.188
		c-0.238,0.126-0.432,0.326-0.583,0.6h-0.02v-0.646h-1.351V86.376z M86.145,83v-0.215c0-0.13,0.012-0.259,0.036-0.388
		c0.023-0.13,0.063-0.248,0.118-0.354c0.054-0.105,0.127-0.191,0.219-0.256c0.093-0.065,0.21-0.097,0.353-0.097
		c0.144,0,0.261,0.027,0.353,0.087c0.092,0.058,0.164,0.143,0.215,0.255c0.051,0.113,0.087,0.249,0.108,0.41
		c0.02,0.16,0.033,0.345,0.041,0.557H86.145z M88.938,83.839v-0.316c0-0.424-0.028-0.807-0.082-1.151s-0.156-0.637-0.307-0.88
		c-0.15-0.242-0.356-0.43-0.619-0.563c-0.263-0.133-0.598-0.199-1.007-0.199c-0.478,0-0.86,0.078-1.146,0.234
		c-0.287,0.157-0.507,0.369-0.66,0.635c-0.153,0.267-0.256,0.569-0.307,0.91c-0.051,0.342-0.077,0.696-0.077,1.064
		c0,0.341,0.016,0.687,0.046,1.038c0.031,0.351,0.115,0.668,0.251,0.952c0.136,0.282,0.348,0.513,0.634,0.689
		c0.287,0.177,0.686,0.267,1.197,0.267c0.675,0,1.169-0.173,1.484-0.517c0.314-0.345,0.483-0.837,0.511-1.479h-1.268
		c-0.041,0.348-0.116,0.606-0.226,0.777c-0.109,0.171-0.283,0.256-0.521,0.256c-0.13,0-0.239-0.035-0.328-0.107
		c-0.089-0.071-0.16-0.167-0.214-0.286c-0.055-0.12-0.095-0.256-0.118-0.409c-0.024-0.153-0.036-0.312-0.036-0.476v-0.44H88.938z
		 M80.066,84.576v0.194c0,0.266,0.031,0.506,0.092,0.721c0.062,0.215,0.169,0.398,0.323,0.553c0.153,0.153,0.36,0.271,0.619,0.353
		c0.258,0.082,0.59,0.123,0.992,0.123c0.294,0,0.566-0.036,0.818-0.107c0.253-0.072,0.469-0.179,0.65-0.322s0.322-0.325,0.424-0.543
		c0.103-0.218,0.154-0.47,0.154-0.757c0-0.416-0.092-0.744-0.276-0.987c-0.184-0.241-0.498-0.438-0.941-0.588l-0.85-0.287
		c-0.238-0.073-0.401-0.166-0.485-0.275c-0.085-0.109-0.128-0.232-0.128-0.368c0-0.197,0.066-0.346,0.199-0.445
		c0.133-0.099,0.289-0.147,0.466-0.147c0.232,0,0.393,0.065,0.486,0.198c0.092,0.134,0.138,0.344,0.138,0.63h1.268v-0.226
		c0-0.498-0.153-0.883-0.46-1.156c-0.307-0.272-0.781-0.408-1.422-0.408c-0.361,0-0.67,0.044-0.926,0.133s-0.465,0.208-0.629,0.357
		c-0.164,0.15-0.283,0.325-0.358,0.527c-0.075,0.201-0.113,0.414-0.113,0.639c0,0.39,0.1,0.708,0.297,0.957
		c0.197,0.248,0.491,0.442,0.88,0.578l0.992,0.358c0.136,0.054,0.256,0.128,0.358,0.22c0.102,0.092,0.154,0.228,0.154,0.404
		c0,0.218-0.065,0.381-0.195,0.491c-0.13,0.108-0.304,0.163-0.522,0.163c-0.238,0-0.421-0.073-0.547-0.22s-0.189-0.34-0.189-0.578
		v-0.184H80.066z M75.396,84.576v0.194c0,0.266,0.031,0.506,0.092,0.721c0.062,0.215,0.169,0.398,0.323,0.553
		c0.153,0.153,0.36,0.271,0.619,0.353c0.259,0.082,0.59,0.123,0.992,0.123c0.294,0,0.567-0.036,0.818-0.107
		c0.253-0.072,0.47-0.179,0.65-0.322c0.181-0.144,0.322-0.325,0.424-0.543c0.103-0.218,0.154-0.47,0.154-0.757
		c0-0.416-0.092-0.744-0.276-0.987c-0.184-0.241-0.497-0.438-0.941-0.588l-0.85-0.287c-0.238-0.073-0.4-0.166-0.485-0.275
		s-0.128-0.232-0.128-0.368c0-0.197,0.066-0.346,0.199-0.445c0.133-0.099,0.289-0.147,0.466-0.147c0.232,0,0.393,0.065,0.486,0.198
		c0.092,0.134,0.138,0.344,0.138,0.63h1.268v-0.226c0-0.498-0.153-0.883-0.46-1.156c-0.307-0.272-0.781-0.408-1.422-0.408
		c-0.361,0-0.67,0.044-0.926,0.133c-0.256,0.089-0.465,0.208-0.629,0.357c-0.164,0.15-0.282,0.325-0.358,0.527
		c-0.075,0.201-0.113,0.414-0.113,0.639c0,0.39,0.1,0.708,0.297,0.957c0.198,0.248,0.491,0.442,0.88,0.578l0.992,0.358
		c0.137,0.054,0.256,0.128,0.358,0.22s0.154,0.228,0.154,0.404c0,0.218-0.065,0.381-0.195,0.491
		c-0.129,0.108-0.303,0.163-0.522,0.163c-0.238,0-0.42-0.073-0.547-0.22c-0.126-0.146-0.189-0.34-0.189-0.578v-0.184H75.396z
		 M73.154,86.376h1.412v-5.504h-1.412V86.376z M73.154,80.197h1.412V78.99h-1.412V80.197z M66.635,86.376h1.637l0.686-3.908h0.02
		l0.726,3.908h1.606l1.187-5.504h-1.35l-0.665,3.908h-0.021l-0.726-3.908h-1.534l-0.686,3.908h-0.02l-0.645-3.908h-1.412
		L66.635,86.376z M62.13,86.376h1.412v-3.304c0-0.185,0.03-0.34,0.092-0.466c0.061-0.126,0.143-0.229,0.245-0.308
		c0.103-0.078,0.215-0.135,0.338-0.168c0.123-0.034,0.245-0.052,0.368-0.052c0.075,0,0.149,0.002,0.22,0.005
		c0.072,0.004,0.144,0.009,0.22,0.017v-1.352c-0.041-0.007-0.084-0.012-0.128-0.015c-0.045-0.003-0.087-0.005-0.128-0.005
		c-0.293,0-0.542,0.08-0.746,0.239c-0.205,0.161-0.379,0.374-0.522,0.641H63.48v-0.737h-1.35V86.376z M59.777,86.376h1.35v-5.504
		h-1.411v3.652c0,0.606-0.25,0.911-0.747,0.911c-0.212,0-0.365-0.057-0.46-0.17c-0.097-0.111-0.144-0.312-0.144-0.598v-3.796h-1.411
		v4.082c0,0.552,0.12,0.951,0.363,1.197c0.241,0.245,0.588,0.368,1.038,0.368c0.307,0,0.579-0.063,0.819-0.189
		c0.238-0.126,0.432-0.325,0.583-0.598h0.02V86.376z M54.119,80.872h-0.716v0.962h0.716v3.151c0,0.278,0.016,0.511,0.051,0.694
		c0.034,0.185,0.097,0.333,0.189,0.445c0.092,0.113,0.223,0.193,0.394,0.241c0.17,0.048,0.395,0.071,0.675,0.071
		c0.164,0,0.318-0.008,0.466-0.021c0.146-0.013,0.297-0.028,0.455-0.041v-0.981c-0.048,0.007-0.099,0.012-0.153,0.015
		c-0.056,0.003-0.11,0.005-0.164,0.005c-0.205,0-0.34-0.046-0.404-0.138c-0.066-0.092-0.097-0.247-0.097-0.465v-2.978h0.818v-0.962
		h-0.818v-1.575h-1.412V80.872z M51.405,84.709c0,0.156-0.028,0.288-0.082,0.394c-0.055,0.105-0.125,0.192-0.21,0.261
		c-0.086,0.068-0.179,0.118-0.281,0.148s-0.202,0.046-0.297,0.046c-0.191,0-0.327-0.074-0.409-0.225
		c-0.082-0.151-0.123-0.331-0.123-0.543c0-0.245,0.062-0.439,0.184-0.583c0.123-0.143,0.328-0.245,0.614-0.307
		c0.088-0.021,0.187-0.054,0.297-0.098c0.108-0.044,0.211-0.104,0.307-0.179V84.709z M50.095,82.561v-0.153
		c0-0.218,0.055-0.393,0.164-0.522c0.109-0.13,0.272-0.193,0.491-0.193c0.238,0,0.407,0.059,0.507,0.179
		c0.098,0.119,0.148,0.284,0.148,0.496c0,0.184-0.041,0.324-0.123,0.419c-0.082,0.095-0.229,0.171-0.44,0.225l-0.798,0.216
		c-0.245,0.068-0.455,0.146-0.629,0.234s-0.317,0.2-0.43,0.333c-0.112,0.133-0.196,0.294-0.25,0.481
		c-0.055,0.187-0.082,0.411-0.082,0.67c0,0.184,0.024,0.37,0.072,0.557c0.047,0.188,0.122,0.356,0.225,0.507
		c0.102,0.15,0.238,0.273,0.409,0.368c0.17,0.095,0.378,0.144,0.624,0.144c0.341,0,0.619-0.049,0.834-0.144
		c0.214-0.095,0.404-0.286,0.567-0.573h0.021c0.02,0.096,0.042,0.192,0.066,0.292c0.024,0.1,0.06,0.192,0.108,0.281h1.35
		c-0.068-0.164-0.114-0.316-0.138-0.46c-0.025-0.144-0.036-0.345-0.036-0.604v-2.896c0-0.246-0.025-0.473-0.077-0.68
		c-0.051-0.208-0.148-0.387-0.291-0.537c-0.143-0.151-0.347-0.266-0.609-0.348c-0.263-0.082-0.602-0.123-1.018-0.123
		c-0.266,0-0.516,0.028-0.752,0.087c-0.235,0.058-0.439,0.152-0.613,0.286c-0.174,0.133-0.312,0.309-0.415,0.526
		c-0.102,0.218-0.153,0.484-0.153,0.798v0.134H50.095z M42.943,79.072v7.304h1.35v-5.115h0.02l1.801,5.115h1.678v-7.304h-1.351
		v5.002h-0.02l-1.78-5.002H42.943z M36.748,82.27c0.092-0.305,0.292-0.456,0.599-0.456c0.314,0,0.516,0.151,0.608,0.456
		c0.092,0.303,0.139,0.755,0.139,1.354c0,0.602-0.047,1.052-0.139,1.356c-0.092,0.303-0.294,0.455-0.608,0.455
		c-0.307,0-0.507-0.152-0.599-0.455c-0.092-0.305-0.138-0.755-0.138-1.356C36.61,83.024,36.656,82.572,36.748,82.27 M38.155,86.376
		h1.35v-7.304h-1.411v2.312h-0.021c-0.15-0.218-0.319-0.382-0.506-0.49c-0.188-0.11-0.415-0.164-0.681-0.164
		c-0.58,0-1.005,0.227-1.278,0.68c-0.274,0.453-0.41,1.192-0.41,2.215c0,1.023,0.136,1.762,0.41,2.215
		c0.273,0.453,0.698,0.681,1.278,0.681c0.287,0,0.527-0.057,0.722-0.169c0.194-0.112,0.37-0.299,0.526-0.558h0.021V86.376z
		 M30.151,86.376h1.412v-3.652c0-0.606,0.248-0.91,0.746-0.91c0.212,0,0.366,0.057,0.461,0.169c0.095,0.112,0.143,0.312,0.143,0.599
		v3.795h1.412v-4.082c0-0.552-0.121-0.951-0.363-1.197c-0.243-0.244-0.589-0.367-1.039-0.367c-0.307,0-0.58,0.063-0.818,0.188
		c-0.239,0.126-0.433,0.326-0.583,0.6h-0.021v-0.646h-1.35V86.376z M27.798,86.376h1.35v-5.504h-1.411v3.652
		c0,0.606-0.249,0.911-0.747,0.911c-0.212,0-0.365-0.057-0.461-0.17c-0.095-0.111-0.143-0.312-0.143-0.598v-3.796h-1.412v4.082
		c0,0.552,0.121,0.951,0.364,1.197c0.242,0.245,0.588,0.368,1.038,0.368c0.307,0,0.58-0.063,0.818-0.189
		c0.239-0.126,0.433-0.325,0.584-0.598h0.02V86.376z"/>
	<path clip-path="url(#SVGID_10_)" fill="#00549F" d="M117.245,67.473v7.304h1.412v-1.605l0.501-0.655l1.177,2.261h1.555
		l-1.821-3.335l1.586-2.169H120.1l-1.422,2.057h-0.021v-3.856H117.245z M114.78,74.776h1.412v-5.504h-1.412V74.776z M114.78,68.598
		h1.412v-1.207h-1.412V68.598z M111.875,69.272h-0.717v0.962h0.717v3.151c0,0.279,0.016,0.511,0.051,0.695
		c0.033,0.185,0.097,0.333,0.189,0.444c0.092,0.113,0.223,0.193,0.394,0.241c0.17,0.048,0.395,0.071,0.675,0.071
		c0.164,0,0.318-0.007,0.465-0.021c0.147-0.013,0.298-0.027,0.456-0.041v-0.981c-0.048,0.007-0.1,0.012-0.154,0.015
		c-0.055,0.003-0.109,0.005-0.163,0.005c-0.205,0-0.34-0.046-0.404-0.138c-0.066-0.092-0.098-0.247-0.098-0.465v-2.978h0.819v-0.962
		h-0.819v-1.575h-1.411V69.272z M109.161,73.109c0,0.156-0.028,0.288-0.082,0.394c-0.056,0.105-0.125,0.192-0.21,0.261
		c-0.086,0.069-0.179,0.118-0.281,0.149c-0.103,0.029-0.202,0.046-0.297,0.046c-0.191,0-0.327-0.075-0.409-0.226
		c-0.082-0.15-0.123-0.331-0.123-0.543c0-0.245,0.061-0.439,0.184-0.583c0.123-0.143,0.328-0.245,0.614-0.307
		c0.088-0.021,0.187-0.053,0.297-0.097c0.108-0.044,0.21-0.104,0.307-0.18V73.109z M107.851,70.961v-0.153
		c0-0.218,0.054-0.392,0.164-0.521c0.108-0.131,0.272-0.194,0.491-0.194c0.238,0,0.407,0.059,0.506,0.179
		c0.098,0.119,0.149,0.284,0.149,0.496c0,0.185-0.041,0.324-0.123,0.419s-0.229,0.171-0.44,0.226l-0.798,0.215
		c-0.246,0.068-0.455,0.146-0.629,0.234c-0.174,0.089-0.317,0.2-0.43,0.333c-0.112,0.134-0.196,0.294-0.25,0.481
		c-0.056,0.187-0.082,0.411-0.082,0.67c0,0.184,0.023,0.37,0.071,0.557c0.047,0.188,0.123,0.356,0.225,0.508
		c0.103,0.149,0.239,0.272,0.41,0.367c0.169,0.096,0.378,0.144,0.624,0.144c0.34,0,0.618-0.048,0.833-0.144
		c0.215-0.095,0.404-0.286,0.568-0.572h0.021c0.02,0.095,0.041,0.191,0.066,0.292c0.024,0.099,0.059,0.191,0.107,0.28h1.351
		c-0.069-0.164-0.115-0.316-0.138-0.46c-0.025-0.144-0.036-0.345-0.036-0.604v-2.896c0-0.246-0.026-0.473-0.077-0.68
		c-0.051-0.208-0.148-0.387-0.291-0.537c-0.144-0.151-0.347-0.266-0.609-0.348c-0.263-0.082-0.603-0.123-1.018-0.123
		c-0.266,0-0.517,0.029-0.752,0.087s-0.44,0.153-0.614,0.286c-0.174,0.133-0.312,0.309-0.414,0.526
		c-0.102,0.219-0.153,0.484-0.153,0.799v0.133H107.851z M98.805,74.776h1.411v-3.621c0-0.327,0.067-0.565,0.2-0.717
		c0.133-0.149,0.312-0.225,0.537-0.225c0.197,0,0.339,0.062,0.425,0.185c0.084,0.122,0.127,0.299,0.127,0.532v3.846h1.412v-3.621
		c0-0.327,0.067-0.565,0.2-0.717c0.133-0.149,0.312-0.225,0.537-0.225c0.197,0,0.338,0.062,0.424,0.185
		c0.085,0.122,0.128,0.299,0.128,0.532v3.846h1.412v-4c0-0.531-0.112-0.938-0.333-1.222c-0.222-0.284-0.567-0.425-1.038-0.425
		c-0.334,0-0.623,0.074-0.864,0.22c-0.243,0.146-0.419,0.366-0.527,0.66h-0.021c-0.075-0.287-0.224-0.505-0.445-0.655
		c-0.222-0.149-0.496-0.225-0.823-0.225c-0.307,0-0.572,0.054-0.793,0.164c-0.222,0.108-0.422,0.289-0.599,0.542h-0.02v-0.563h-1.35
		V74.776z M95.29,74.776h1.411v-3.304c0-0.184,0.031-0.34,0.092-0.466c0.062-0.126,0.144-0.229,0.246-0.308
		c0.102-0.077,0.215-0.135,0.338-0.168c0.122-0.033,0.245-0.052,0.368-0.052c0.075,0,0.148,0.002,0.22,0.005
		c0.071,0.004,0.144,0.01,0.22,0.017v-1.352c-0.041-0.007-0.084-0.012-0.128-0.015c-0.045-0.003-0.087-0.005-0.128-0.005
		c-0.294,0-0.542,0.08-0.747,0.24c-0.204,0.16-0.378,0.374-0.522,0.64h-0.02v-0.737h-1.35V74.776z M91.561,71.248
		c0.013-0.239,0.046-0.443,0.097-0.614c0.051-0.171,0.126-0.304,0.225-0.399c0.099-0.095,0.237-0.143,0.414-0.143
		c0.287,0,0.484,0.15,0.594,0.45c0.109,0.3,0.163,0.795,0.163,1.482c0,0.689-0.054,1.185-0.163,1.483
		c-0.11,0.3-0.307,0.451-0.594,0.451c-0.177,0-0.315-0.048-0.414-0.145c-0.099-0.095-0.174-0.228-0.225-0.398
		c-0.051-0.17-0.084-0.375-0.097-0.613c-0.014-0.239-0.021-0.499-0.021-0.778C91.54,71.746,91.547,71.485,91.561,71.248
		 M90.231,73.294c0.068,0.36,0.184,0.665,0.348,0.91c0.163,0.245,0.385,0.428,0.665,0.547c0.279,0.12,0.631,0.176,1.053,0.169
		c0.402,0,0.742-0.063,1.018-0.189c0.276-0.126,0.499-0.31,0.67-0.552c0.171-0.243,0.294-0.545,0.369-0.906
		c0.074-0.36,0.112-0.776,0.112-1.248c0-0.478-0.034-0.897-0.102-1.263c-0.069-0.365-0.184-0.67-0.348-0.916
		c-0.164-0.245-0.386-0.427-0.665-0.547c-0.28-0.12-0.631-0.176-1.054-0.169c-0.402,0-0.741,0.063-1.018,0.188
		c-0.276,0.126-0.499,0.311-0.67,0.554c-0.17,0.241-0.293,0.544-0.368,0.904c-0.075,0.361-0.112,0.778-0.112,1.248
		C90.129,72.509,90.162,72.933,90.231,73.294 M87.493,74.776h1.412v-4.542h0.818v-0.962h-0.818v-0.48
		c0-0.156,0.041-0.27,0.123-0.337c0.082-0.069,0.222-0.103,0.419-0.103h0.133c0.062,0,0.11,0.003,0.143,0.01v-1.003
		c-0.258-0.02-0.511-0.029-0.757-0.029c-0.225,0-0.429,0.021-0.613,0.065c-0.185,0.044-0.34,0.118-0.466,0.22
		c-0.126,0.103-0.223,0.238-0.291,0.409c-0.069,0.171-0.103,0.379-0.103,0.624v0.624h-0.716v0.962h0.716V74.776z M81.983,74.776
		h1.412v-3.651c0-0.607,0.249-0.911,0.747-0.911c0.212,0,0.365,0.057,0.46,0.169c0.095,0.113,0.144,0.312,0.144,0.599v3.795h1.411
		v-4.082c0-0.552-0.12-0.95-0.363-1.196c-0.242-0.245-0.588-0.368-1.038-0.368c-0.307,0-0.58,0.063-0.819,0.188
		c-0.238,0.126-0.432,0.326-0.583,0.6h-0.02v-0.646h-1.351V74.776z M80.899,67.473h-1.473v7.304h1.473V67.473z M74.485,73.181v1.596
		h0.532v0.164c0,0.191-0.044,0.365-0.133,0.521c-0.088,0.157-0.221,0.253-0.399,0.287v0.716c0.273-0.028,0.496-0.094,0.67-0.2
		c0.174-0.104,0.312-0.242,0.414-0.409c0.102-0.166,0.173-0.365,0.21-0.593c0.038-0.228,0.056-0.479,0.056-0.752v-1.33H74.485z
		 M69.192,67.473v7.304h1.411v-1.605l0.502-0.655l1.176,2.261h1.555l-1.821-3.335l1.586-2.169h-1.555l-1.422,2.057h-0.021v-3.856
		H69.192z M66.725,74.776h1.412v-5.504h-1.412V74.776z M66.725,68.598h1.412v-1.207h-1.412V68.598z M63.82,69.272h-0.716v0.962
		h0.716v3.151c0,0.279,0.017,0.511,0.051,0.695c0.035,0.185,0.097,0.333,0.189,0.444c0.092,0.113,0.224,0.193,0.394,0.241
		c0.171,0.048,0.396,0.071,0.675,0.071c0.164,0,0.32-0.007,0.466-0.021c0.147-0.013,0.299-0.027,0.455-0.041v-0.981
		c-0.047,0.007-0.098,0.012-0.153,0.015c-0.055,0.003-0.109,0.005-0.164,0.005c-0.205,0-0.339-0.046-0.404-0.138
		s-0.097-0.247-0.097-0.465v-2.978h0.818v-0.962h-0.818v-1.575H63.82V69.272z M61.107,73.109c0,0.156-0.028,0.288-0.082,0.394
		c-0.055,0.105-0.125,0.192-0.21,0.261c-0.086,0.069-0.179,0.118-0.281,0.149c-0.102,0.029-0.201,0.046-0.297,0.046
		c-0.191,0-0.327-0.075-0.409-0.226s-0.123-0.331-0.123-0.543c0-0.245,0.062-0.439,0.185-0.583c0.122-0.143,0.327-0.245,0.613-0.307
		c0.088-0.021,0.188-0.053,0.297-0.097c0.108-0.044,0.211-0.104,0.307-0.18V73.109z M59.797,70.961v-0.153
		c0-0.218,0.055-0.392,0.164-0.521c0.109-0.131,0.272-0.194,0.491-0.194c0.239,0,0.407,0.059,0.507,0.179
		c0.098,0.119,0.148,0.284,0.148,0.496c0,0.185-0.041,0.324-0.123,0.419s-0.229,0.171-0.44,0.226l-0.798,0.215
		c-0.245,0.068-0.455,0.146-0.629,0.234c-0.174,0.089-0.317,0.2-0.429,0.333c-0.113,0.134-0.197,0.294-0.251,0.481
		c-0.055,0.187-0.082,0.411-0.082,0.67c0,0.184,0.024,0.37,0.072,0.557c0.047,0.188,0.122,0.356,0.225,0.508
		c0.102,0.149,0.238,0.272,0.409,0.367c0.17,0.096,0.378,0.144,0.624,0.144c0.341,0,0.619-0.048,0.834-0.144
		c0.215-0.095,0.404-0.286,0.567-0.572h0.021c0.02,0.095,0.042,0.191,0.066,0.292c0.024,0.099,0.06,0.191,0.108,0.28h1.35
		c-0.068-0.164-0.114-0.316-0.138-0.46s-0.036-0.345-0.036-0.604v-2.896c0-0.246-0.025-0.473-0.076-0.68
		c-0.052-0.208-0.149-0.387-0.292-0.537c-0.143-0.151-0.347-0.266-0.609-0.348c-0.263-0.082-0.602-0.123-1.018-0.123
		c-0.266,0-0.516,0.029-0.751,0.087c-0.236,0.058-0.44,0.153-0.614,0.286c-0.174,0.133-0.312,0.309-0.415,0.526
		c-0.102,0.219-0.153,0.484-0.153,0.799v0.133H59.797z M50.751,74.776h1.412v-3.621c0-0.327,0.066-0.565,0.199-0.717
		c0.133-0.149,0.312-0.225,0.537-0.225c0.198,0,0.339,0.062,0.425,0.185c0.085,0.122,0.128,0.299,0.128,0.532v3.846h1.412v-3.621
		c0-0.327,0.066-0.565,0.199-0.717c0.133-0.149,0.312-0.225,0.537-0.225c0.198,0,0.339,0.062,0.425,0.185
		c0.085,0.122,0.128,0.299,0.128,0.532v3.846h1.411v-4c0-0.531-0.111-0.938-0.332-1.222c-0.222-0.284-0.568-0.425-1.039-0.425
		c-0.334,0-0.623,0.074-0.864,0.22c-0.242,0.146-0.418,0.366-0.527,0.66h-0.02c-0.076-0.287-0.224-0.505-0.445-0.655
		c-0.222-0.149-0.496-0.225-0.824-0.225c-0.307,0-0.572,0.054-0.793,0.164c-0.222,0.108-0.421,0.289-0.598,0.542h-0.021v-0.563
		h-1.35V74.776z M47.138,71.4v-0.215c0-0.13,0.011-0.259,0.036-0.388c0.023-0.13,0.062-0.248,0.117-0.354
		c0.054-0.105,0.128-0.191,0.22-0.256c0.092-0.064,0.21-0.097,0.353-0.097c0.143,0,0.261,0.028,0.353,0.087
		c0.092,0.058,0.164,0.143,0.215,0.255c0.051,0.113,0.087,0.249,0.107,0.41c0.021,0.16,0.034,0.345,0.041,0.557H47.138z
		 M49.931,72.239v-0.316c0-0.423-0.028-0.806-0.082-1.151c-0.055-0.345-0.158-0.637-0.307-0.88
		c-0.151-0.242-0.357-0.429-0.619-0.562c-0.263-0.134-0.599-0.2-1.008-0.2c-0.477,0-0.859,0.079-1.145,0.234
		c-0.287,0.157-0.507,0.369-0.66,0.636c-0.154,0.266-0.256,0.568-0.307,0.91c-0.051,0.341-0.077,0.695-0.077,1.063
		c0,0.341,0.015,0.688,0.046,1.038c0.031,0.351,0.114,0.668,0.251,0.952c0.136,0.283,0.348,0.513,0.634,0.689
		c0.286,0.178,0.685,0.267,1.197,0.267c0.675,0,1.169-0.172,1.483-0.517c0.313-0.345,0.484-0.837,0.512-1.479H48.58
		c-0.041,0.348-0.116,0.606-0.225,0.778c-0.109,0.171-0.283,0.256-0.522,0.256c-0.129,0-0.239-0.036-0.327-0.108
		c-0.089-0.071-0.161-0.167-0.215-0.286c-0.055-0.12-0.094-0.256-0.117-0.409c-0.025-0.153-0.036-0.312-0.036-0.476v-0.44H49.931z
		 M40.727,74.776h1.411v-3.651c0-0.607,0.249-0.911,0.747-0.911c0.211,0,0.364,0.057,0.461,0.169
		c0.095,0.113,0.143,0.312,0.143,0.599v3.795H44.9v-4.082c0-0.552-0.121-0.95-0.363-1.196c-0.242-0.245-0.588-0.368-1.038-0.368
		c-0.621,0-1.068,0.234-1.34,0.706h-0.021v-2.363h-1.411V74.776z M37.874,69.272h-0.716v0.962h0.716v3.151
		c0,0.279,0.017,0.511,0.052,0.695c0.033,0.185,0.097,0.333,0.189,0.444c0.092,0.113,0.223,0.193,0.394,0.241
		c0.17,0.048,0.395,0.071,0.675,0.071c0.164,0,0.318-0.007,0.465-0.021c0.147-0.013,0.298-0.027,0.456-0.041v-0.981
		c-0.048,0.007-0.1,0.012-0.154,0.015c-0.055,0.003-0.109,0.005-0.163,0.005c-0.205,0-0.34-0.046-0.405-0.138
		c-0.065-0.092-0.097-0.247-0.097-0.465v-2.978h0.819v-0.962h-0.819v-1.575h-1.412V69.272z M35.16,73.109
		c0,0.156-0.027,0.288-0.081,0.394c-0.056,0.105-0.125,0.192-0.21,0.261c-0.086,0.069-0.179,0.118-0.281,0.149
		c-0.103,0.029-0.202,0.046-0.297,0.046c-0.191,0-0.327-0.075-0.409-0.226c-0.082-0.15-0.123-0.331-0.123-0.543
		c0-0.245,0.061-0.439,0.184-0.583c0.123-0.143,0.327-0.245,0.614-0.307c0.088-0.021,0.187-0.053,0.297-0.097
		c0.108-0.044,0.21-0.104,0.306-0.18V73.109z M33.851,70.961v-0.153c0-0.218,0.054-0.392,0.164-0.521
		c0.108-0.131,0.272-0.194,0.491-0.194c0.238,0,0.407,0.059,0.506,0.179c0.098,0.119,0.148,0.284,0.148,0.496
		c0,0.185-0.04,0.324-0.122,0.419s-0.229,0.171-0.44,0.226L33.8,71.626c-0.246,0.068-0.455,0.146-0.629,0.234
		c-0.174,0.089-0.317,0.2-0.43,0.333c-0.112,0.134-0.196,0.294-0.251,0.481c-0.055,0.187-0.081,0.411-0.081,0.67
		c0,0.184,0.023,0.37,0.071,0.557c0.047,0.188,0.123,0.356,0.225,0.508c0.103,0.149,0.239,0.272,0.409,0.367
		c0.17,0.096,0.379,0.144,0.624,0.144c0.341,0,0.619-0.048,0.834-0.144c0.215-0.095,0.404-0.286,0.568-0.572h0.02
		c0.021,0.095,0.042,0.191,0.067,0.292c0.023,0.099,0.059,0.191,0.107,0.28h1.351c-0.069-0.164-0.115-0.316-0.138-0.46
		c-0.025-0.144-0.036-0.345-0.036-0.604v-2.896c0-0.246-0.026-0.473-0.077-0.68c-0.051-0.208-0.148-0.387-0.291-0.537
		c-0.144-0.151-0.347-0.266-0.609-0.348c-0.263-0.082-0.603-0.123-1.018-0.123c-0.266,0-0.517,0.029-0.752,0.087
		s-0.44,0.153-0.614,0.286c-0.174,0.133-0.312,0.309-0.414,0.526c-0.102,0.219-0.154,0.484-0.154,0.799v0.133H33.851z
		 M25.046,74.776h1.35v-5.831h0.021l1.299,5.831h1.146l1.299-5.831h0.02v5.831h1.351v-7.304h-2.179l-1.054,5.156h-0.02l-1.044-5.156
		h-2.189V74.776z"/>
	<path clip-path="url(#SVGID_10_)" fill="#00549F" d="M69.487,63.178h1.412v-3.305c0-0.184,0.031-0.34,0.092-0.466
		s0.143-0.228,0.245-0.307c0.103-0.078,0.215-0.136,0.338-0.168c0.123-0.034,0.246-0.053,0.368-0.053
		c0.076,0,0.149,0.002,0.22,0.006c0.072,0.004,0.145,0.009,0.22,0.016v-1.351c-0.041-0.008-0.083-0.013-0.128-0.016
		c-0.044-0.003-0.087-0.005-0.128-0.005c-0.292,0-0.542,0.08-0.746,0.24c-0.205,0.161-0.379,0.374-0.522,0.64h-0.021v-0.737h-1.35
		V63.178z M64.945,56.887h1.146v-1.208h-1.146V56.887z M66.705,56.887h1.146v-1.208h-1.146V56.887z M67.134,63.178h1.351v-5.505
		h-1.412v3.652c0,0.607-0.249,0.911-0.747,0.911c-0.211,0-0.365-0.056-0.46-0.169c-0.096-0.112-0.144-0.313-0.144-0.598v-3.797
		h-1.411v4.082c0,0.553,0.121,0.951,0.363,1.197c0.242,0.245,0.588,0.368,1.038,0.368c0.307,0,0.58-0.063,0.819-0.189
		c0.239-0.126,0.433-0.324,0.583-0.598h0.02V63.178z M61.477,63.178h1.412v-4.542h0.818v-0.963h-0.818v-0.48
		c0-0.156,0.041-0.27,0.122-0.337c0.082-0.069,0.222-0.103,0.42-0.103h0.133c0.061,0,0.109,0.003,0.143,0.011V55.76
		c-0.259-0.02-0.511-0.03-0.757-0.03c-0.225,0-0.43,0.022-0.614,0.066s-0.338,0.118-0.465,0.22
		c-0.126,0.102-0.223,0.237-0.292,0.409c-0.067,0.171-0.102,0.379-0.102,0.623v0.624H60.76v0.963h0.716V63.178z M55.994,57.673
		h-0.716v0.963h0.716v3.15c0,0.279,0.016,0.511,0.051,0.695c0.034,0.184,0.097,0.333,0.189,0.445s0.223,0.192,0.394,0.24
		c0.17,0.048,0.395,0.071,0.675,0.071c0.164,0,0.318-0.007,0.466-0.02c0.146-0.014,0.297-0.028,0.455-0.041v-0.982
		c-0.048,0.007-0.099,0.012-0.154,0.015c-0.055,0.003-0.109,0.005-0.163,0.005c-0.205,0-0.34-0.046-0.404-0.138
		c-0.066-0.092-0.098-0.247-0.098-0.465v-2.977h0.819v-0.963h-0.819v-1.574h-1.411V57.673z M51.254,56.887H52.4v-1.208h-1.146
		V56.887z M53.014,56.887h1.146v-1.208h-1.146V56.887z M53.28,61.511c0,0.155-0.028,0.287-0.082,0.393
		c-0.055,0.106-0.125,0.193-0.21,0.261c-0.086,0.069-0.179,0.118-0.281,0.149c-0.103,0.03-0.202,0.046-0.297,0.046
		c-0.191,0-0.327-0.075-0.409-0.225c-0.082-0.151-0.123-0.331-0.123-0.544c0-0.244,0.061-0.439,0.184-0.583
		c0.123-0.143,0.328-0.244,0.614-0.307c0.088-0.02,0.187-0.053,0.297-0.097c0.108-0.044,0.21-0.104,0.307-0.179V61.511z
		 M51.97,59.361v-0.153c0-0.218,0.054-0.392,0.164-0.521c0.108-0.13,0.272-0.194,0.491-0.194c0.238,0,0.407,0.06,0.506,0.179
		c0.098,0.119,0.149,0.284,0.149,0.496c0,0.185-0.041,0.324-0.123,0.419c-0.082,0.096-0.229,0.171-0.44,0.226l-0.798,0.215
		c-0.246,0.069-0.455,0.146-0.629,0.235c-0.174,0.089-0.317,0.199-0.43,0.333c-0.112,0.133-0.196,0.294-0.25,0.48
		c-0.056,0.188-0.082,0.411-0.082,0.67c0,0.185,0.023,0.37,0.071,0.558c0.047,0.188,0.123,0.355,0.225,0.507
		c0.103,0.149,0.239,0.272,0.41,0.368c0.169,0.095,0.378,0.143,0.624,0.143c0.34,0,0.619-0.048,0.833-0.143
		c0.215-0.096,0.404-0.286,0.568-0.573h0.021c0.02,0.095,0.042,0.191,0.066,0.292c0.024,0.099,0.059,0.191,0.108,0.281h1.35
		c-0.069-0.164-0.115-0.317-0.138-0.46c-0.025-0.145-0.036-0.346-0.036-0.604v-2.895c0-0.246-0.026-0.474-0.077-0.681
		c-0.051-0.208-0.148-0.387-0.291-0.537c-0.144-0.15-0.347-0.266-0.609-0.348c-0.263-0.082-0.603-0.123-1.018-0.123
		c-0.266,0-0.517,0.029-0.752,0.087c-0.235,0.059-0.44,0.153-0.614,0.286c-0.174,0.133-0.312,0.309-0.414,0.527
		c-0.102,0.218-0.153,0.483-0.153,0.798v0.133H51.97z M47.798,57.673h-0.716v0.963h0.716v3.15c0,0.279,0.017,0.511,0.051,0.695
		c0.034,0.184,0.098,0.333,0.19,0.445c0.092,0.112,0.223,0.192,0.394,0.24c0.169,0.048,0.394,0.071,0.675,0.071
		c0.163,0,0.318-0.007,0.465-0.02c0.147-0.014,0.298-0.028,0.455-0.041v-0.982c-0.048,0.007-0.099,0.012-0.153,0.015
		c-0.055,0.003-0.109,0.005-0.164,0.005c-0.204,0-0.339-0.046-0.404-0.138c-0.065-0.092-0.097-0.247-0.097-0.465v-2.977h0.818
		v-0.963H49.21v-1.574h-1.412V57.673z M45.014,63.178h1.412v-7.304h-1.412V63.178z M42.635,63.178h1.351v-5.505h-1.412v3.652
		c0,0.607-0.25,0.911-0.747,0.911c-0.212,0-0.365-0.056-0.46-0.169c-0.096-0.112-0.144-0.313-0.144-0.598v-3.797h-1.411v4.082
		c0,0.553,0.12,0.951,0.363,1.197c0.241,0.245,0.588,0.368,1.038,0.368c0.307,0,0.579-0.063,0.819-0.189
		c0.238-0.126,0.432-0.324,0.583-0.598h0.02V63.178z M34.708,55.874v7.304h1.412v-1.606l0.501-0.655l1.176,2.262h1.555l-1.821-3.335
		l1.586-2.17h-1.555l-1.422,2.057h-0.02v-3.856H34.708z M32.302,61.511c0,0.155-0.028,0.287-0.082,0.393
		c-0.054,0.106-0.125,0.193-0.21,0.261c-0.085,0.069-0.179,0.118-0.281,0.149c-0.102,0.03-0.202,0.046-0.297,0.046
		c-0.191,0-0.327-0.075-0.409-0.225c-0.082-0.151-0.123-0.331-0.123-0.544c0-0.244,0.062-0.439,0.184-0.583
		c0.123-0.143,0.328-0.244,0.614-0.307c0.089-0.02,0.187-0.053,0.297-0.097c0.109-0.044,0.212-0.104,0.307-0.179V61.511z
		 M30.992,59.361v-0.153c0-0.218,0.055-0.392,0.164-0.521c0.11-0.13,0.273-0.194,0.491-0.194c0.238,0,0.407,0.06,0.507,0.179
		c0.099,0.119,0.148,0.284,0.148,0.496c0,0.185-0.041,0.324-0.123,0.419c-0.082,0.096-0.228,0.171-0.44,0.226l-0.798,0.215
		c-0.245,0.069-0.455,0.146-0.629,0.235c-0.174,0.089-0.317,0.199-0.43,0.333c-0.112,0.133-0.196,0.294-0.25,0.48
		c-0.054,0.188-0.082,0.411-0.082,0.67c0,0.185,0.024,0.37,0.072,0.558c0.048,0.188,0.122,0.355,0.225,0.507
		c0.102,0.149,0.238,0.272,0.409,0.368c0.171,0.095,0.378,0.143,0.624,0.143c0.341,0,0.619-0.048,0.834-0.143
		c0.214-0.096,0.404-0.286,0.567-0.573h0.021c0.02,0.095,0.043,0.191,0.066,0.292c0.024,0.099,0.06,0.191,0.108,0.281h1.35
		c-0.068-0.164-0.114-0.317-0.138-0.46c-0.023-0.145-0.036-0.346-0.036-0.604v-2.895c0-0.246-0.025-0.474-0.076-0.681
		c-0.052-0.208-0.149-0.387-0.292-0.537c-0.143-0.15-0.346-0.266-0.609-0.348c-0.263-0.082-0.601-0.123-1.018-0.123
		c-0.266,0-0.516,0.029-0.752,0.087c-0.235,0.059-0.439,0.153-0.613,0.286c-0.174,0.133-0.312,0.309-0.415,0.527
		c-0.102,0.218-0.153,0.483-0.153,0.798v0.133H30.992z M25.016,63.178h1.473v-3.172h2.455v-1.207h-2.455V57.08h2.609v-1.207h-4.082
		V63.178z"/>
</g>
</svg>
